{"title":"Maigret - L'affare Picpus - s1e2 - 1965","uid":8784003,"size":2619176398,"categoryP":"video","categoryS":"tv_shows","magnet":"?xt=urn:btih:19ae3e097e742f1375cfa2c8ecafde079833db19&amp;dn=Maigret+-+L%27affare+Picpus+-+s1e2+-+1965&amp;tr=udp%3A%2F%2Ftracker.openbittorrent.com%3A80&amp;tr=udp%3A%2F%2Fopen.demonii.com%3A1337&amp;tr=udp%3A%2F%2Ftracker.coppersurfer.tk%3A6969&amp;tr=udp%3A%2F%2Fexodus.desync.com%3A6969","seeders":1,"leechers":0,"uploader":"ziopino","files":1,"time":1375780717,"description":"Format                                   : MPEG-4\nFormat profile                           : Base Media / Version 2\nCodec ID                                 : mp42\nFile size                                : 2.44 GiB\nDuration                                 : 4h 18mn\nOverall bit rate mode                    : Variable\nOverall bit rate                         : 1 352 Kbps\nEncoded date                             : UTC 2013-03-11 10:47:45\nTagged date                              : UTC 2013-03-11 12:41:16\nWriting application                      : HandBrake 0.9.8 2012071700\n\nVideo\nID                                       : 1\nFormat                                   : AVC\nFormat/Info                              : Advanced Video Codec\nFormat profile                           : &lt;a class=&quot;__cf_email__&quot; href=&quot;/cdn-cgi/l/email-protection&quot; data-cfemail=&quot;064b676f68464a352836&quot;&gt;[email&amp;#160;protected]&lt;/a&gt;&lt;script cf-hash='f9e31' type=&quot;text/javascript&quot;&gt;\n/* &lt;![CDATA[ */!function(){try{var t=&quot;currentScript&quot;in document?document.currentScript:function(){for(var t=document.getElementsByTagName(&quot;script&quot;),e=t.length;e--;)if(t[e].getAttribute(&quot;cf-hash&quot;))return t[e]}();if(t&amp;&amp;t.previousSibling){var e,r,n,i,c=t.previousSibling,a=c.getAttribute(&quot;data-cfemail&quot;);if(a){for(e=&quot;&quot;,r=parseInt(a.substr(0,2),16),n=2;a.length-n;n+=2)i=parseInt(a.substr(n,2),16)^r,e+=String.fromCharCode(i);e=document.createTextNode(e),c.parentNode.replaceChild(e,c)}}}catch(u){}}();/* ]]&gt; */&lt;/script&gt;\nFormat settings, CABAC                   : Yes\nFormat settings, ReFrames                : 4 frames\nCodec ID                                 : avc1\nCodec ID/Info                            : Advanced Video Coding\nDuration                                 : 4h 18mn\nBit rate mode                            : Variable\nBit rate                                 : 1 200 Kbps\nWidth                                    : 720 pixels\nHeight                                   : 544 pixels\nDisplay aspect ratio                     : 4:3\nFrame rate mode                          : Constant\nFrame rate                               : 25.000 fps\nColor space                              : YUV\nChroma subsampling                       : 4:2:0\nBit depth                                : 8 bits\nScan type                                : Progressive\nBits/(Pixel*Frame)                       : 0.123\nStream size                              : 2.16 GiB (89%)\nWriting library                          : x264 core 120\nEncoded date                             : UTC 2013-03-11 10:47:45\nTagged date                              : UTC 2013-03-11 12:41:15\nColor primaries                          : BT.601 NTSC\nTransfer characteristics                 : BT.709\nMatrix coefficients                      : BT.601\n\nAudio\nID                                       : 2\nFormat                                   : AAC\nFormat/Info                              : Advanced Audio Codec\nFormat profile                           : LC\nCodec ID                                 : 40\nDuration                                 : 4h 18mn\nBit rate mode                            : Variable\nBit rate                                 : 148 Kbps\nMaximum bit rate                         : 180 Kbps\nChannel(s)                               : 1 channel\nChannel positions                        : Front: C\nSampling rate                            : 48.0 KHz\nCompression mode                         : Lossy\nDelay relative to video                  : 80ms\nStream size                              : 273 MiB (11%)\nEncoded date                             : UTC 2013-03-11 10:47:46\nTagged date                              : UTC 2013-03-11 12:41:14\n","torrent":{"xt":"urn:btih:19ae3e097e742f1375cfa2c8ecafde079833db19","amp;dn":"Maigret+-+L%27affare+Picpus+-+s1e2+-+1965","amp;tr":["udp%3A%2F%2Ftracker.openbittorrent.com%3A80","udp%3A%2F%2Fopen.demonii.com%3A1337","udp%3A%2F%2Ftracker.coppersurfer.tk%3A6969","udp%3A%2F%2Fexodus.desync.com%3A6969"],"infoHash":"19ae3e097e742f1375cfa2c8ecafde079833db19","infoHashBuffer":{"type":"Buffer","data":[25,174,62,9,126,116,47,19,117,207,162,200,236,175,222,7,152,51,219,25]},"announce":[],"urlList":[]}}